<!DOCTYPE svg PUBLIC "-//W3C//DTD SVG 20010904//EN" "http://www.w3.org/TR/2001/REC-SVG-20010904/DTD/svg10.dtd">
<svg version="1.0" xmlns="http://www.w3.org/2000/svg" width="1116px" height="296px" viewBox="0 0 11160 2960" preserveAspectRatio="xMidYMid meet">
<g id="layer1" fill="#045188" stroke="none">
 <path d="M0 1480 l0 -1480 5580 0 5580 0 0 1480 0 1480 -5580 0 -5580 0 0 -1480z m1589 1230 c129 -31 205 -72 286 -154 75 -75 111 -136 148 -250 24 -76 47 -98 47 -46 0 66 107 225 202 301 75 59 197 115 308 141 87 20 120 22 390 22 291 0 466 -14 544 -44 47 -17 93 -13 99 10 5 20 12 20 329 18 l323 -3 3 -435 c1 -239 6 -438 11 -443 5 -5 48 0 103 12 l94 22 22 57 c86 231 292 774 297 782 8 14 732 14 740 0 6 -9 -158 -363 -379 -819 -14 -30 -26 -60 -26 -67 0 -7 34 -29 75 -49 53 -27 91 -55 130 -97 30 -32 55 -63 55 -69 0 -5 6 -9 14 -9 10 0 14 39 19 183 9 272 38 417 118 582 78 161 173 251 327 309 112 43 231 56 497 56 247 0 368 -9 465 -36 243 -66 400 -227 482 -494 11 -36 24 -69 29 -75 5 -5 9 107 9 281 0 212 3 293 12 302 15 15 1078 17 1223 3 109 -11 240 -43 312 -76 76 -34 164 -105 204 -164 19 -28 39 -51 46 -51 9 0 13 31 15 107 l3 107 113 33 c214 62 251 66 672 70 360 4 391 3 478 -16 256 -56 400 -208 458 -483 25 -117 25 -435 1 -528 -40 -146 -84 -233 -162 -318 -52 -56 -83 -79 -157 -116 l-91 -46 2 -113 c2 -95 -1 -121 -19 -166 -11 -30 -18 -56 -16 -59 3 -3 85 -1 182 4 97 5 178 7 180 5 2 -2 4 -113 4 -246 l0 -242 -107 -31 c-223 -64 -458 -88 -783 -78 -239 7 -303 15 -412 50 -146 48 -267 138 -334 248 -19 32 -41 58 -48 58 -7 0 -32 -29 -55 -64 -86 -133 -226 -215 -427 -250 -74 -13 -191 -16 -680 -16 -661 0 -603 -7 -605 73 0 33 -2 38 -9 22 -5 -11 -11 -37 -15 -57 l-6 -38 -304 0 -305 0 0 184 c0 102 -3 187 -7 189 -5 3 -149 8 -320 12 l-313 8 -2 -194 -3 -194 -327 -3 -328 -2 0 165 c0 91 -3 165 -7 165 -5 -1 -24 -26 -43 -57 -88 -140 -251 -234 -455 -262 -47 -7 -310 -11 -685 -11 l-608 0 -7 78 -8 77 -17 -50 -16 -49 -108 -28 c-140 -36 -228 -46 -460 -54 -307 -10 -504 17 -636 87 -132 70 -231 175 -297 316 -37 81 -44 87 -78 79 l-25 -6 -2 -183 -3 -182 -70 -23 c-243 -79 -592 -108 -970 -82 -241 17 -387 72 -510 193 -126 125 -164 233 -172 488 -12 345 40 531 187 680 45 45 86 75 133 98 123 58 158 63 463 71 254 6 285 9 315 26 47 28 59 57 59 145 0 87 -18 121 -76 145 -53 22 -529 16 -912 -12 l-92 -7 2 248 3 249 109 32 c96 29 237 57 336 67 19 2 193 4 385 5 320 2 357 0 434 -18z"/>
 <path d="M3588 2310 c-10 -41 -20 -91 -23 -111 -4 -19 -10 -40 -14 -47 -5 -8 -76 -8 -271 -2 -287 11 -387 7 -465 -17 -136 -42 -190 -147 -202 -394 l-6 -125 48 -18 c30 -12 70 -41 108 -79 l59 -59 192 7 c184 7 583 39 592 48 2 2 3 199 2 438 l-3 434 -17 -75z"/>
 <path d="M8000 1941 l0 -231 28 0 c15 -1 117 0 227 0 229 1 243 5 285 81 22 39 25 56 25 149 0 117 -16 166 -68 204 -26 20 -44 21 -263 24 l-234 3 0 -230z"/>
 <path d="M9460 2148 c-107 -5 -204 -12 -214 -17 -18 -7 -20 -16 -17 -108 4 -147 -25 -249 -100 -359 -16 -23 -25 -44 -22 -48 4 -3 29 -6 56 -6 46 0 53 4 109 55 33 31 90 71 126 89 127 64 150 68 462 76 158 4 297 12 311 18 54 22 69 56 69 154 0 87 -1 91 -30 118 -16 15 -44 30 -61 34 -43 8 -448 5 -689 -6z"/>
 <path d="M6250 2131 c-70 -25 -123 -80 -146 -152 -12 -40 -18 -100 -22 -226 l-4 -173 315 0 c290 0 315 1 322 17 10 28 -6 292 -22 357 -20 81 -61 139 -120 167 -68 33 -242 39 -323 10z"/>
 <path d="M2200 1513 c-380 -26 -565 -56 -755 -123 -168 -60 -395 -186 -494 -275 -62 -56 -147 -212 -127 -232 3 -3 421 -9 928 -13 998 -8 1047 -7 1728 51 275 23 270 24 270 -33 0 -22 5 -28 23 -29 12 0 186 -2 387 -4 201 -1 394 -5 430 -9 113 -10 900 -32 1630 -46 376 -7 486 -7 492 3 11 17 10 659 -1 676 -7 11 -204 12 -1272 1 -695 -7 -1300 -15 -1344 -19 l-80 -6 -53 -80 c-29 -44 -59 -81 -65 -82 -7 -1 -37 27 -67 62 -30 35 -64 67 -75 70 -11 3 -144 -5 -295 -19 -151 -13 -367 -27 -480 -31 l-205 -6 -54 62 c-76 86 -87 89 -298 87 -98 -1 -198 -3 -223 -5z m2926 -279 c30 -18 39 -60 19 -90 -8 -13 -38 -35 -65 -49 -57 -29 -66 -55 -21 -55 16 0 41 4 54 9 19 7 27 6 30 -4 17 -43 -82 -72 -141 -41 -68 35 -52 104 33 141 31 14 55 31 55 40 0 23 -43 28 -85 11 -48 -20 -47 -21 -43 12 3 23 10 29 48 38 49 13 83 9 116 -12z m1082 5 c15 -6 22 -17 22 -35 0 -23 -3 -25 -22 -19 -92 30 -158 4 -158 -61 0 -49 29 -74 86 -74 25 0 54 5 65 10 15 9 21 7 26 -6 10 -26 -11 -48 -55 -58 -62 -13 -111 0 -154 44 -33 33 -38 44 -38 84 0 38 6 52 33 82 46 50 116 62 195 33z m-1668 -40 c0 -47 2 -50 23 -47 15 2 30 19 47 50 22 43 29 48 58 48 30 0 33 -2 26 -22 -10 -34 -32 -76 -44 -83 -6 -4 -3 -16 10 -32 26 -33 25 -56 -3 -89 -21 -24 -32 -27 -100 -32 l-77 -5 0 132 0 131 30 0 c29 0 30 -1 30 -51z m390 26 c0 -23 -4 -24 -62 -27 -60 -3 -63 -4 -63 -28 0 -23 4 -25 58 -28 49 -3 57 -6 57 -22 0 -17 -7 -20 -54 -20 -46 0 -56 -3 -61 -20 -10 -32 3 -40 66 -40 57 0 60 -1 57 -22 -3 -22 -8 -23 -95 -26 l-93 -3 0 131 0 130 95 0 c94 0 95 0 95 -25z m460 0 c0 -24 -3 -25 -59 -25 -63 0 -76 -8 -66 -40 5 -17 15 -20 61 -20 47 0 54 -2 54 -20 0 -18 -7 -20 -54 -20 -46 0 -56 -3 -61 -20 -10 -32 3 -40 66 -40 57 0 60 -1 57 -22 -3 -22 -8 -23 -95 -26 l-93 -3 0 131 0 130 95 0 c95 0 95 0 95 -25z m90 0 c9 -23 15 -25 70 -25 55 0 60 2 66 25 5 21 12 25 41 25 41 0 42 6 -27 -146 l-50 -109 -36 0 -37 0 -48 115 c-26 63 -48 121 -48 128 -1 7 11 12 29 12 23 0 33 -6 40 -25z m310 -26 c0 -47 2 -50 23 -47 15 2 30 19 47 50 22 42 29 48 58 48 17 0 32 -3 32 -7 0 -5 -13 -31 -28 -59 -28 -50 -28 -51 -10 -74 24 -30 23 -53 -5 -86 -21 -24 -32 -27 -100 -32 l-77 -5 0 132 0 131 30 0 c29 0 30 -1 30 -51z m542 4 l3 -48 63 -3 62 -3 0 51 0 51 33 -3 32 -3 0 -125 0 -125 -30 0 c-29 0 -30 2 -35 50 l-5 50 -60 0 -60 0 -5 -50 c-5 -46 -7 -50 -32 -53 l-28 -3 0 130 0 131 29 0 c28 0 30 -2 33 -47z"/>
 <path d="M4544 1086 c-11 -28 4 -48 33 -44 22 2 28 8 28 28 0 20 -6 26 -28 28 -18 2 -29 -2 -33 -12z"/>
 <path d="M5516 1151 c-6 -9 20 -81 29 -81 6 0 35 68 35 81 0 12 -57 12 -64 0z"/>
 <path d="M5797 1093 c-11 -10 -8 -41 4 -48 19 -12 59 4 59 24 0 25 -45 42 -63 24z"/>
 <path d="M8251 1508 c-603 -6 -879 -12 -888 -20 -10 -8 -13 -82 -13 -348 0 -186 3 -345 6 -354 5 -13 53 -15 361 -16 196 0 359 -2 362 -4 4 -3 444 -10 978 -16 752 -10 983 -10 1020 -1 123 31 252 122 293 207 20 41 22 57 18 162 -4 108 -7 122 -38 185 -54 110 -148 174 -297 203 -86 16 -357 16 -1802 2z m240 -329 c22 -45 43 -78 47 -74 4 3 23 39 42 78 19 40 41 72 49 72 12 0 121 -230 121 -256 0 -5 -14 -9 -30 -9 -32 0 -36 7 -82 120 -10 24 -12 21 -45 -47 -48 -99 -73 -99 -116 0 -14 31 -30 57 -35 57 -5 0 -20 -28 -34 -62 -23 -57 -29 -63 -57 -66 -37 -4 -38 2 -7 76 56 133 86 192 95 192 6 0 29 -36 52 -81z m492 52 c15 -8 37 -34 48 -58 77 -159 -185 -260 -266 -103 -62 120 91 234 218 161z m-1403 -51 c0 -38 4 -70 9 -70 4 0 36 32 71 71 51 58 67 70 89 67 l26 -3 3 -105 c4 -135 0 -152 -36 -148 -26 3 -27 5 -32 77 l-5 74 -69 -77 c-57 -64 -73 -77 -95 -74 l-26 3 -3 114 c-1 63 0 121 2 128 3 7 19 13 36 13 l30 0 0 -70z m440 45 c0 -24 -3 -25 -61 -25 -60 0 -60 0 -57 -27 3 -26 7 -28 56 -31 43 -3 52 -6 52 -22 0 -16 -9 -19 -52 -22 -49 -3 -53 -5 -56 -30 -3 -28 -3 -28 58 -28 58 0 61 -1 58 -22 -3 -22 -7 -23 -93 -23 l-90 0 -3 128 -3 127 96 0 c95 0 95 0 95 -25z m190 -79 l0 -105 48 -3 c39 -3 47 -6 47 -23 0 -19 -7 -20 -125 -20 -118 0 -125 1 -125 20 0 16 8 21 45 25 l45 5 3 103 3 102 29 0 30 0 0 -104z m930 59 c0 -76 54 -68 80 11 10 30 16 34 46 34 32 0 35 -2 29 -22 -4 -13 -17 -40 -28 -60 -19 -35 -19 -39 -4 -56 23 -25 21 -68 -2 -91 -21 -21 -86 -35 -141 -29 l-35 3 -3 128 -3 127 31 0 c29 0 30 -2 30 -45z m260 -5 c0 -64 13 -64 64 0 35 45 43 50 78 50 45 0 45 -1 -19 -76 -24 -28 -43 -54 -43 -58 0 -4 16 -30 35 -59 19 -28 35 -55 35 -59 0 -5 -13 -8 -29 -8 -23 0 -37 11 -72 58 l-44 57 -3 -57 c-3 -57 -4 -58 -32 -58 l-30 0 0 130 0 130 30 0 c29 0 30 -1 30 -50z"/>
 <path d="M8842 1177 c-49 -52 -15 -127 57 -127 72 0 106 76 56 125 -32 33 -83 34 -113 2z"/>
 <path d="M9144 1086 c-11 -28 4 -48 33 -44 22 2 28 8 28 28 0 20 -6 26 -28 28 -18 2 -29 -2 -33 -12z"/>
 </g>
<g id="layer2" fill="#fafcfd" stroke="none">
 <path d="M770 2723 c-99 -10 -240 -38 -336 -67 l-109 -32 -3 -249 -2 -248 92 7 c383 28 859 34 912 12 58 -24 76 -58 76 -145 0 -88 -12 -117 -59 -145 -30 -17 -61 -20 -315 -26 -305 -8 -340 -13 -463 -71 -47 -23 -88 -53 -133 -98 -147 -149 -199 -335 -187 -680 8 -255 46 -363 172 -488 123 -121 269 -176 510 -193 378 -26 727 3 970 82 l70 23 3 182 2 183 25 6 c34 8 41 2 78 -79 66 -141 165 -246 297 -316 132 -70 329 -97 636 -87 232 8 320 18 460 54 l108 28 16 49 17 50 8 -77 7 -78 608 0 c375 0 638 4 685 11 204 28 367 122 455 262 19 31 38 56 43 57 4 0 7 -74 7 -165 l0 -165 328 2 327 3 3 194 2 194 313 -8 c171 -4 315 -9 320 -12 4 -2 7 -87 7 -189 l0 -184 305 0 304 0 6 38 c4 20 10 46 15 57 7 16 9 11 9 -22 2 -80 -56 -73 605 -73 489 0 606 3 680 16 201 35 341 117 427 250 23 35 48 64 55 64 7 0 29 -26 48 -58 67 -110 188 -200 334 -248 109 -35 173 -43 412 -50 325 -10 560 14 783 78 l107 31 0 242 c0 133 -2 244 -4 246 -2 2 -83 0 -180 -5 -97 -5 -179 -7 -182 -4 -2 3 5 29 16 59 18 45 21 71 19 166 l-2 113 91 46 c165 83 259 210 319 434 24 93 24 411 -1 528 -34 161 -100 285 -193 361 -65 53 -167 101 -265 122 -87 19 -118 20 -478 16 -421 -4 -458 -8 -672 -70 l-113 -33 -3 -107 c-2 -76 -6 -107 -15 -107 -7 0 -27 23 -46 51 -40 59 -128 130 -204 164 -72 33 -203 65 -312 76 -145 14 -1208 12 -1223 -3 -9 -9 -12 -90 -12 -302 0 -174 -4 -286 -9 -281 -5 6 -18 39 -29 75 -82 267 -239 428 -482 494 -97 27 -218 36 -465 36 -266 0 -385 -13 -497 -56 -154 -58 -249 -148 -327 -309 -80 -165 -109 -310 -118 -582 -5 -144 -9 -183 -19 -183 -8 0 -14 4 -14 9 0 6 -25 37 -55 69 -39 42 -77 70 -130 97 -41 20 -75 42 -75 49 0 7 12 37 26 67 221 456 385 810 379 819 -8 14 -732 14 -740 0 -5 -8 -211 -551 -297 -782 l-22 -57 -94 -22 c-55 -12 -98 -17 -103 -12 -5 5 -10 204 -11 443 l-3 435 -323 3 c-317 2 -324 2 -329 -18 -6 -23 -52 -27 -99 -10 -78 30 -253 44 -544 44 -270 0 -303 -2 -390 -22 -111 -26 -233 -82 -308 -141 -95 -76 -202 -235 -202 -301 0 -52 -23 -30 -47 46 -37 114 -73 175 -148 250 -81 82 -157 123 -286 154 -77 18 -114 20 -434 18 -192 -1 -366 -3 -385 -5z m2836 -1210 c-9 -9 -408 -41 -592 -48 l-192 -7 -59 59 c-38 38 -78 67 -108 79 l-48 18 6 125 c12 247 66 352 202 394 78 24 178 28 465 17 195 -6 266 -6 271 2 4 7 10 28 14 47 3 20 13 70 23 111 l17 75 3 -434 c1 -239 0 -436 -2 -438z m4891 631 c52 -38 68 -87 68 -204 0 -93 -3 -110 -25 -149 -42 -76 -56 -80 -285 -81 -110 0 -212 -1 -227 0 l-28 0 0 231 0 230 234 -3 c219 -3 237 -4 263 -24z m1652 10 c17 -4 45 -19 61 -34 29 -27 30 -31 30 -118 0 -98 -15 -132 -69 -154 -14 -6 -153 -14 -311 -18 -312 -8 -335 -12 -462 -76 -36 -18 -93 -58 -126 -89 -56 -51 -63 -55 -109 -55 -27 0 -52 3 -56 6 -3 4 6 25 22 48 75 110 104 212 100 359 -3 92 -1 101 17 108 43 18 828 38 903 23z m-3576 -33 c59 -28 100 -86 120 -167 16 -65 32 -329 22 -357 -7 -16 -32 -17 -322 -17 l-315 0 4 173 c6 200 19 258 76 319 57 60 121 79 257 76 91 -3 118 -7 158 -27z m-3939 -615 c18 -7 57 -41 87 -75 l54 -62 205 6 c113 4 329 18 480 31 151 14 284 22 295 19 11 -3 45 -35 75 -70 30 -35 60 -63 67 -62 6 1 36 38 65 82 l53 80 80 6 c44 4 649 12 1344 19 1068 11 1265 10 1272 -1 11 -17 12 -659 1 -676 -6 -10 -116 -10 -492 -3 -730 14 -1517 36 -1630 46 -36 4 -229 8 -430 9 -201 2 -375 4 -387 4 -18 1 -23 7 -23 29 0 57 5 56 -270 33 -681 -58 -730 -59 -1728 -51 -507 4 -925 10 -928 13 -20 20 65 176 127 232 99 89 326 215 494 275 163 57 327 88 580 109 198 17 207 17 398 19 132 2 186 -2 211 -12z m7419 0 c149 -29 243 -93 297 -203 31 -63 34 -77 38 -185 4 -105 2 -121 -18 -162 -41 -85 -170 -176 -293 -207 -37 -9 -268 -9 -1020 1 -534 6 -974 13 -978 16 -3 2 -166 4 -362 4 -308 1 -356 3 -361 16 -3 9 -6 168 -6 354 0 266 3 340 13 348 9 8 285 14 888 20 1445 14 1716 14 1802 -2z"/>
 <path d="M5010 1246 c-38 -9 -45 -15 -48 -38 -4 -33 -5 -32 43 -12 42 17 85 12 85 -11 0 -9 -24 -26 -55 -40 -85 -37 -101 -106 -33 -141 59 -31 158 -2 141 41 -3 10 -11 11 -30 4 -13 -5 -38 -9 -54 -9 -45 0 -36 26 21 55 60 30 84 62 74 100 -12 48 -72 70 -144 51z"/>
 <path d="M6080 1250 c-20 -5 -49 -24 -67 -44 -27 -30 -33 -44 -33 -82 0 -40 5 -51 38 -84 43 -44 92 -57 154 -44 44 10 65 32 55 58 -5 13 -11 15 -26 6 -11 -5 -40 -10 -65 -10 -57 0 -86 25 -86 74 0 65 66 91 158 61 19 -6 22 -4 22 19 0 18 -7 29 -22 35 -40 15 -92 19 -128 11z"/>
 <path d="M4480 1119 l0 -132 77 5 c68 5 79 8 100 32 28 33 29 56 3 89 -13 16 -16 28 -10 32 12 7 34 49 44 83 7 20 4 22 -26 22 -29 0 -36 -5 -58 -48 -17 -31 -32 -48 -47 -50 -21 -3 -23 0 -23 47 0 50 -1 51 -30 51 l-30 0 0 -131z m125 -49 c0 -20 -6 -26 -28 -28 -18 -2 -29 2 -33 12 -11 28 4 48 33 44 22 -2 28 -8 28 -28z"/>
 <path d="M4740 1120 l0 -131 93 3 c87 3 92 4 95 26 3 21 0 22 -57 22 -63 0 -76 8 -66 40 5 17 15 20 61 20 47 0 54 3 54 20 0 16 -8 19 -57 22 -54 3 -58 5 -58 28 0 24 3 25 63 28 58 3 62 4 62 27 0 25 -1 25 -95 25 l-95 0 0 -130z"/>
 <path d="M5200 1120 l0 -131 93 3 c87 3 92 4 95 26 3 21 0 22 -57 22 -63 0 -76 8 -66 40 5 17 15 20 61 20 47 0 54 2 54 20 0 18 -7 20 -54 20 -46 0 -56 3 -61 20 -10 32 3 40 66 40 56 0 59 1 59 25 0 25 0 25 -95 25 l-95 0 0 -130z"/>
 <path d="M5411 1238 c0 -7 22 -65 48 -128 l48 -115 37 0 36 0 50 109 c69 152 68 146 27 146 -29 0 -36 -4 -41 -25 -6 -23 -11 -25 -66 -25 -55 0 -61 2 -70 25 -7 19 -17 25 -40 25 -18 0 -30 -5 -29 -12z m169 -87 c0 -13 -29 -81 -35 -81 -9 0 -35 72 -29 81 7 12 64 12 64 0z"/>
 <path d="M5730 1119 l0 -132 77 5 c68 5 79 8 100 32 28 33 29 56 5 86 -18 23 -18 24 10 74 15 28 28 54 28 59 0 4 -15 7 -32 7 -29 0 -36 -6 -58 -48 -17 -31 -32 -48 -47 -50 -21 -3 -23 0 -23 47 0 50 -1 51 -30 51 l-30 0 0 -131z m114 -25 c25 -10 19 -43 -8 -50 -30 -7 -46 1 -46 25 0 30 19 38 54 25z"/>
 <path d="M6270 1119 l0 -130 28 3 c25 3 27 7 32 53 l5 50 60 0 60 0 5 -50 c5 -48 6 -50 35 -50 l30 0 0 125 0 125 -32 3 -33 3 0 -51 0 -51 -62 3 -63 3 -3 48 c-3 45 -5 47 -33 47 l-29 0 0 -131z"/>
 <path d="M8399 1193 c-51 -113 -79 -182 -79 -193 0 -7 13 -10 31 -8 28 3 34 9 57 66 14 34 29 62 34 62 5 0 21 -26 35 -57 43 -99 68 -99 116 0 33 68 35 71 45 47 46 -113 50 -120 82 -120 16 0 30 4 30 9 0 26 -109 256 -121 256 -8 0 -30 -32 -49 -72 -19 -39 -38 -75 -42 -78 -4 -4 -25 29 -47 74 -23 45 -46 81 -52 81 -5 0 -24 -30 -40 -67z"/>
 <path d="M8865 1250 c-47 -10 -74 -29 -95 -63 -79 -130 110 -262 230 -161 106 90 7 257 -135 224z m90 -75 c30 -30 32 -64 4 -99 -16 -20 -29 -26 -60 -26 -49 0 -79 27 -79 72 0 71 84 104 135 53z"/>
 <path d="M7514 1237 c-2 -7 -3 -65 -2 -128 l3 -114 26 -3 c22 -3 38 10 95 74 l69 77 5 -74 c5 -72 6 -74 32 -77 36 -4 40 13 36 148 l-3 105 -26 3 c-22 3 -38 -9 -89 -67 -35 -39 -67 -71 -71 -71 -5 0 -9 32 -9 70 l0 70 -30 0 c-17 0 -33 -6 -36 -13z"/>
 <path d="M7832 1123 l3 -128 90 0 c86 0 90 1 93 23 3 21 0 22 -58 22 -61 0 -61 0 -58 28 3 25 7 27 56 30 43 3 52 6 52 22 0 16 -9 19 -52 22 -49 3 -53 5 -56 31 -3 27 -3 27 57 27 58 0 61 1 61 25 0 25 0 25 -95 25 l-96 0 3 -127z"/>
 <path d="M8148 1148 l-3 -103 -45 -5 c-37 -4 -45 -9 -45 -25 0 -19 7 -20 125 -20 118 0 125 1 125 20 0 17 -8 20 -47 23 l-48 3 0 105 0 104 -30 0 -29 0 -3 -102z"/>
 <path d="M9082 1123 l3 -128 35 -3 c55 -6 120 8 141 29 23 23 25 66 2 91 -15 17 -15 21 4 56 11 20 24 47 28 60 6 20 3 22 -29 22 -30 0 -36 -4 -46 -34 -26 -79 -80 -87 -80 -11 0 43 -1 45 -30 45 l-31 0 3 -127z m123 -53 c0 -20 -6 -26 -28 -28 -18 -2 -29 2 -33 12 -11 28 4 48 33 44 22 -2 28 -8 28 -28z"/>
 <path d="M9340 1120 l0 -130 30 0 c28 0 29 1 32 58 l3 57 44 -57 c35 -47 49 -58 72 -58 16 0 29 3 29 8 0 4 -16 31 -35 59 -19 29 -35 55 -35 59 0 4 19 30 43 58 64 75 64 76 19 76 -35 0 -43 -5 -78 -50 -51 -64 -64 -64 -64 0 0 49 -1 50 -30 50 l-30 0 0 -130z"/>
 </g>

</svg>