<!DOCTYPE svg PUBLIC "-//W3C//DTD SVG 20010904//EN" "http://www.w3.org/TR/2001/REC-SVG-20010904/DTD/svg10.dtd">
<svg version="1.0" xmlns="http://www.w3.org/2000/svg" width="1116px" height="296px" viewBox="0 0 11160 2960" preserveAspectRatio="xMidYMid meet">
<g id="layer1" fill="#fafcfd" stroke="none">
 <path d="M770 2723 c-99 -10 -240 -38 -336 -67 l-109 -32 -3 -249 -2 -248 92 7 c383 28 859 34 912 12 58 -24 76 -58 76 -145 0 -88 -12 -117 -59 -145 -30 -17 -61 -20 -315 -26 -305 -8 -340 -13 -463 -71 -47 -23 -88 -53 -133 -98 -147 -149 -199 -335 -187 -680 8 -255 46 -363 172 -488 123 -121 269 -176 510 -193 378 -26 727 3 970 82 l70 23 3 182 2 183 25 6 c34 8 41 2 78 -79 66 -141 165 -246 297 -316 132 -70 329 -97 636 -87 232 8 320 18 460 54 l108 28 16 49 17 50 8 -77 7 -78 608 0 c375 0 638 4 685 11 204 28 367 122 455 262 19 31 38 56 43 57 4 0 7 -74 7 -165 l0 -165 328 2 327 3 3 194 2 194 313 -8 c171 -4 315 -9 320 -12 4 -2 7 -87 7 -189 l0 -184 305 0 304 0 6 38 c4 20 10 46 15 57 7 16 9 11 9 -22 2 -80 -56 -73 605 -73 489 0 606 3 680 16 201 35 341 117 427 250 23 35 48 64 55 64 7 0 29 -26 48 -58 67 -110 188 -200 334 -248 109 -35 173 -43 412 -50 325 -10 560 14 783 78 l107 31 0 242 c0 133 -2 244 -4 246 -2 2 -83 0 -180 -5 -97 -5 -179 -7 -182 -4 -2 3 5 29 16 59 18 45 21 71 19 166 l-2 113 91 46 c165 83 259 210 319 434 24 93 24 411 -1 528 -34 161 -100 285 -193 361 -65 53 -167 101 -265 122 -87 19 -118 20 -478 16 -421 -4 -458 -8 -672 -70 l-113 -33 -3 -107 c-2 -76 -6 -107 -15 -107 -7 0 -27 23 -46 51 -40 59 -128 130 -204 164 -72 33 -203 65 -312 76 -145 14 -1208 12 -1223 -3 -9 -9 -12 -90 -12 -302 0 -174 -4 -286 -9 -281 -5 6 -18 39 -29 75 -82 267 -239 428 -482 494 -97 27 -218 36 -465 36 -266 0 -385 -13 -497 -56 -154 -58 -249 -148 -327 -309 -80 -165 -109 -310 -118 -582 -5 -144 -9 -183 -19 -183 -8 0 -14 4 -14 9 0 6 -25 37 -55 69 -39 42 -77 70 -130 97 -41 20 -75 42 -75 49 0 7 12 37 26 67 221 456 385 810 379 819 -8 14 -732 14 -740 0 -5 -8 -211 -551 -297 -782 l-22 -57 -94 -22 c-55 -12 -98 -17 -103 -12 -5 5 -10 204 -11 443 l-3 435 -323 3 c-317 2 -324 2 -329 -18 -6 -23 -52 -27 -99 -10 -78 30 -253 44 -544 44 -270 0 -303 -2 -390 -22 -111 -26 -233 -82 -308 -141 -95 -76 -202 -235 -202 -301 0 -52 -23 -30 -47 46 -37 114 -73 175 -148 250 -81 82 -157 123 -286 154 -77 18 -114 20 -434 18 -192 -1 -366 -3 -385 -5z m2836 -1210 c-9 -9 -408 -41 -592 -48 l-192 -7 -59 59 c-38 38 -78 67 -108 79 l-48 18 6 125 c12 247 66 352 202 394 78 24 178 28 465 17 195 -6 266 -6 271 2 4 7 10 28 14 47 3 20 13 70 23 111 l17 75 3 -434 c1 -239 0 -436 -2 -438z m4891 631 c52 -38 68 -87 68 -204 0 -93 -3 -110 -25 -149 -42 -76 -56 -80 -285 -81 -110 0 -212 -1 -227 0 l-28 0 0 231 0 230 234 -3 c219 -3 237 -4 263 -24z m1652 10 c17 -4 45 -19 61 -34 29 -27 30 -31 30 -118 0 -98 -15 -132 -69 -154 -14 -6 -153 -14 -311 -18 -312 -8 -335 -12 -462 -76 -36 -18 -93 -58 -126 -89 -56 -51 -63 -55 -109 -55 -27 0 -52 3 -56 6 -3 4 6 25 22 48 75 110 104 212 100 359 -3 92 -1 101 17 108 43 18 828 38 903 23z m-3576 -33 c59 -28 100 -86 120 -167 16 -65 32 -329 22 -357 -7 -16 -32 -17 -322 -17 l-315 0 4 173 c6 200 19 258 76 319 57 60 121 79 257 76 91 -3 118 -7 158 -27z m-3939 -615 c18 -7 57 -41 87 -75 l54 -62 205 6 c113 4 329 18 480 31 151 14 284 22 295 19 11 -3 45 -35 75 -70 30 -35 60 -63 67 -62 6 1 36 38 65 82 l53 80 80 6 c44 4 649 12 1344 19 1068 11 1265 10 1272 -1 11 -17 12 -659 1 -676 -6 -10 -116 -10 -492 -3 -730 14 -1517 36 -1630 46 -36 4 -229 8 -430 9 -201 2 -375 4 -387 4 -18 1 -23 7 -23 29 0 57 5 56 -270 33 -681 -58 -730 -59 -1728 -51 -507 4 -925 10 -928 13 -20 20 65 176 127 232 99 89 326 215 494 275 163 57 327 88 580 109 198 17 207 17 398 19 132 2 186 -2 211 -12z m7419 0 c149 -29 243 -93 297 -203 31 -63 34 -77 38 -185 4 -105 2 -121 -18 -162 -41 -85 -170 -176 -293 -207 -37 -9 -268 -9 -1020 1 -534 6 -974 13 -978 16 -3 2 -166 4 -362 4 -308 1 -356 3 -361 16 -3 9 -6 168 -6 354 0 266 3 340 13 348 9 8 285 14 888 20 1445 14 1716 14 1802 -2z"/>
 <path d="M5010 1246 c-38 -9 -45 -15 -48 -38 -4 -33 -5 -32 43 -12 42 17 85 12 85 -11 0 -9 -24 -26 -55 -40 -85 -37 -101 -106 -33 -141 59 -31 158 -2 141 41 -3 10 -11 11 -30 4 -13 -5 -38 -9 -54 -9 -45 0 -36 26 21 55 60 30 84 62 74 100 -12 48 -72 70 -144 51z"/>
 <path d="M6080 1250 c-20 -5 -49 -24 -67 -44 -27 -30 -33 -44 -33 -82 0 -40 5 -51 38 -84 43 -44 92 -57 154 -44 44 10 65 32 55 58 -5 13 -11 15 -26 6 -11 -5 -40 -10 -65 -10 -57 0 -86 25 -86 74 0 65 66 91 158 61 19 -6 22 -4 22 19 0 18 -7 29 -22 35 -40 15 -92 19 -128 11z"/>
 <path d="M4480 1119 l0 -132 77 5 c68 5 79 8 100 32 28 33 29 56 3 89 -13 16 -16 28 -10 32 12 7 34 49 44 83 7 20 4 22 -26 22 -29 0 -36 -5 -58 -48 -17 -31 -32 -48 -47 -50 -21 -3 -23 0 -23 47 0 50 -1 51 -30 51 l-30 0 0 -131z m125 -49 c0 -20 -6 -26 -28 -28 -18 -2 -29 2 -33 12 -11 28 4 48 33 44 22 -2 28 -8 28 -28z"/>
 <path d="M4740 1120 l0 -131 93 3 c87 3 92 4 95 26 3 21 0 22 -57 22 -63 0 -76 8 -66 40 5 17 15 20 61 20 47 0 54 3 54 20 0 16 -8 19 -57 22 -54 3 -58 5 -58 28 0 24 3 25 63 28 58 3 62 4 62 27 0 25 -1 25 -95 25 l-95 0 0 -130z"/>
 <path d="M5200 1120 l0 -131 93 3 c87 3 92 4 95 26 3 21 0 22 -57 22 -63 0 -76 8 -66 40 5 17 15 20 61 20 47 0 54 2 54 20 0 18 -7 20 -54 20 -46 0 -56 3 -61 20 -10 32 3 40 66 40 56 0 59 1 59 25 0 25 0 25 -95 25 l-95 0 0 -130z"/>
 <path d="M5411 1238 c0 -7 22 -65 48 -128 l48 -115 37 0 36 0 50 109 c69 152 68 146 27 146 -29 0 -36 -4 -41 -25 -6 -23 -11 -25 -66 -25 -55 0 -61 2 -70 25 -7 19 -17 25 -40 25 -18 0 -30 -5 -29 -12z m169 -87 c0 -13 -29 -81 -35 -81 -9 0 -35 72 -29 81 7 12 64 12 64 0z"/>
 <path d="M5730 1119 l0 -132 77 5 c68 5 79 8 100 32 28 33 29 56 5 86 -18 23 -18 24 10 74 15 28 28 54 28 59 0 4 -15 7 -32 7 -29 0 -36 -6 -58 -48 -17 -31 -32 -48 -47 -50 -21 -3 -23 0 -23 47 0 50 -1 51 -30 51 l-30 0 0 -131z m114 -25 c25 -10 19 -43 -8 -50 -30 -7 -46 1 -46 25 0 30 19 38 54 25z"/>
 <path d="M6270 1119 l0 -130 28 3 c25 3 27 7 32 53 l5 50 60 0 60 0 5 -50 c5 -48 6 -50 35 -50 l30 0 0 125 0 125 -32 3 -33 3 0 -51 0 -51 -62 3 -63 3 -3 48 c-3 45 -5 47 -33 47 l-29 0 0 -131z"/>
 <path d="M8399 1193 c-51 -113 -79 -182 -79 -193 0 -7 13 -10 31 -8 28 3 34 9 57 66 14 34 29 62 34 62 5 0 21 -26 35 -57 43 -99 68 -99 116 0 33 68 35 71 45 47 46 -113 50 -120 82 -120 16 0 30 4 30 9 0 26 -109 256 -121 256 -8 0 -30 -32 -49 -72 -19 -39 -38 -75 -42 -78 -4 -4 -25 29 -47 74 -23 45 -46 81 -52 81 -5 0 -24 -30 -40 -67z"/>
 <path d="M8865 1250 c-47 -10 -74 -29 -95 -63 -79 -130 110 -262 230 -161 106 90 7 257 -135 224z m90 -75 c30 -30 32 -64 4 -99 -16 -20 -29 -26 -60 -26 -49 0 -79 27 -79 72 0 71 84 104 135 53z"/>
 <path d="M7514 1237 c-2 -7 -3 -65 -2 -128 l3 -114 26 -3 c22 -3 38 10 95 74 l69 77 5 -74 c5 -72 6 -74 32 -77 36 -4 40 13 36 148 l-3 105 -26 3 c-22 3 -38 -9 -89 -67 -35 -39 -67 -71 -71 -71 -5 0 -9 32 -9 70 l0 70 -30 0 c-17 0 -33 -6 -36 -13z"/>
 <path d="M7832 1123 l3 -128 90 0 c86 0 90 1 93 23 3 21 0 22 -58 22 -61 0 -61 0 -58 28 3 25 7 27 56 30 43 3 52 6 52 22 0 16 -9 19 -52 22 -49 3 -53 5 -56 31 -3 27 -3 27 57 27 58 0 61 1 61 25 0 25 0 25 -95 25 l-96 0 3 -127z"/>
 <path d="M8148 1148 l-3 -103 -45 -5 c-37 -4 -45 -9 -45 -25 0 -19 7 -20 125 -20 118 0 125 1 125 20 0 17 -8 20 -47 23 l-48 3 0 105 0 104 -30 0 -29 0 -3 -102z"/>
 <path d="M9082 1123 l3 -128 35 -3 c55 -6 120 8 141 29 23 23 25 66 2 91 -15 17 -15 21 4 56 11 20 24 47 28 60 6 20 3 22 -29 22 -30 0 -36 -4 -46 -34 -26 -79 -80 -87 -80 -11 0 43 -1 45 -30 45 l-31 0 3 -127z m123 -53 c0 -20 -6 -26 -28 -28 -18 -2 -29 2 -33 12 -11 28 4 48 33 44 22 -2 28 -8 28 -28z"/>
 <path d="M9340 1120 l0 -130 30 0 c28 0 29 1 32 58 l3 57 44 -57 c35 -47 49 -58 72 -58 16 0 29 3 29 8 0 4 -16 31 -35 59 -19 29 -35 55 -35 59 0 4 19 30 43 58 64 75 64 76 19 76 -35 0 -43 -5 -78 -50 -51 -64 -64 -64 -64 0 0 49 -1 50 -30 50 l-30 0 0 -130z"/>
 </g>

</svg>